<?xml version="1.0" standalone="no"?>
<!DOCTYPE svg PUBLIC "-//W3C//DTD SVG 20010904//EN"
 "http://www.w3.org/TR/2001/REC-SVG-20010904/DTD/svg10.dtd">
<svg version="1.0" xmlns="http://www.w3.org/2000/svg"
 width="700.000000pt" height="700.000000pt" viewBox="0 0 700.000000 700.000000"
 preserveAspectRatio="xMidYMid meet">
<metadata>
Created by potrace 1.11, written by Peter Selinger 2001-2013
</metadata>
<g transform="translate(0.000000,700.000000) scale(0.100000,-0.100000)"
fill="#000000" stroke="none">
<path d="M0 3500 l0 -3500 3500 0 3500 0 0 3500 0 3500 -3500 0 -3500 0 0
-3500z m1811 1240 c215 -66 349 -289 349 -582 0 -236 -53 -368 -171 -428 -53
-28 -143 -27 -189 1 -63 39 -74 73 -43 132 57 111 67 346 21 501 -17 55 -74
112 -122 121 -93 18 -172 -46 -253 -202 -82 -158 -126 -314 -170 -593 -25
-164 -25 -541 1 -695 66 -398 203 -565 417 -510 35 8 77 24 93 33 l31 18 0
159 c1 134 5 172 23 233 63 207 201 366 338 388 83 13 180 -41 218 -120 42
-89 37 -246 -13 -351 -36 -77 -130 -195 -214 -270 l-66 -58 19 -37 c29 -58 84
-100 128 -100 95 1 171 70 251 231 31 62 63 117 72 123 26 15 65 -1 77 -31 6
-16 13 -82 17 -148 10 -190 29 -181 99 50 25 83 66 227 92 320 49 179 68 226
116 288 38 48 109 89 145 85 54 -6 60 -34 83 -368 25 -375 29 -415 46 -437 11
-16 14 -16 28 -3 8 8 43 110 76 225 116 398 141 457 218 525 68 61 147 67 171
13 16 -36 29 -201 39 -499 7 -211 11 -245 28 -274 39 -67 78 -63 134 14 55 74
85 160 175 496 43 164 70 224 127 286 55 60 98 80 136 62 53 -26 56 -46 45
-332 -10 -276 -3 -521 17 -581 6 -20 23 -43 36 -52 22 -14 26 -14 50 2 37 24
61 86 73 190 14 114 14 270 1 296 -13 23 -48 25 -76 4 -25 -19 -58 -19 -74 0
-17 21 3 74 43 113 91 88 225 81 309 -17 48 -56 70 -132 70 -239 0 -217 -97
-407 -246 -485 -54 -28 -71 -32 -141 -32 -94 0 -138 19 -217 93 -63 59 -106
143 -127 250 -10 45 -21 83 -25 83 -4 0 -27 -42 -50 -93 -52 -117 -89 -171
-161 -236 -89 -82 -167 -90 -253 -25 -64 48 -92 117 -132 326 -6 31 -15 57
-19 57 -4 0 -27 -45 -51 -100 -76 -176 -160 -282 -236 -296 -103 -19 -203 103
-237 291 -5 33 -13 64 -17 68 -4 5 -39 -57 -78 -136 -78 -159 -145 -243 -213
-266 -66 -22 -123 16 -159 105 l-22 54 -61 -55 c-34 -31 -86 -68 -116 -83 -48
-23 -68 -27 -146 -27 -107 0 -144 15 -213 86 l-46 48 -29 -25 c-39 -33 -161
-89 -227 -105 -85 -20 -204 -16 -285 9 -269 82 -436 354 -485 787 -15 133 -12
452 5 597 68 585 312 999 660 1120 101 35 211 38 306 8z m2890 -95 c224 -75
359 -283 359 -552 0 -391 -243 -647 -590 -620 -302 24 -506 288 -487 632 10
178 58 302 158 409 86 92 185 141 317 155 92 10 165 3 243 -24z m1144 -1 c50
-8 93 -19 98 -23 4 -4 6 -242 5 -528 l-3 -521 -25 -27 c-40 -43 -73 -55 -150
-55 l-70 0 0 226 0 226 -57 -7 c-123 -15 -145 -38 -226 -233 -30 -73 -62 -144
-71 -157 -41 -62 -175 -87 -244 -45 -34 21 -34 21 -16 48 9 15 23 36 30 47 7
11 41 85 74 165 60 142 114 232 147 244 13 5 6 13 -33 36 -60 34 -109 87 -138
149 -27 60 -28 197 -2 256 53 123 148 192 297 215 71 11 272 3 384 -16z
m-3072 6 c87 -13 154 -47 205 -105 42 -47 34 -27 213 -545 l53 -154 92 281
c95 292 150 421 211 492 36 42 36 42 87 36 134 -19 193 -95 216 -278 15 -129
40 -494 47 -699 l6 -188 -69 0 c-81 0 -128 20 -160 68 -18 26 -23 52 -28 135
-22 407 -29 507 -35 542 l-7 40 -21 -60 c-12 -33 -63 -188 -114 -345 -50 -157
-103 -307 -117 -334 l-26 -48 -66 4 c-77 4 -118 28 -160 94 -15 24 -76 188
-135 365 -63 188 -111 315 -115 307 -12 -22 -30 -287 -37 -535 l-6 -233 -66 0
c-88 0 -128 21 -160 84 l-24 48 12 222 c16 299 68 776 87 808 7 10 33 10 117
-2z m2762 -1299 c78 -35 116 -101 136 -231 7 -44 16 -80 19 -80 4 0 18 8 31
18 94 73 167 90 195 47 15 -23 16 -53 9 -293 -7 -282 -2 -342 34 -361 20 -11
55 4 103 44 56 47 108 46 108 -3 0 -36 -63 -135 -113 -179 -135 -118 -288 -86
-360 75 -28 62 -57 205 -57 283 0 27 -3 49 -7 49 -5 0 -23 -39 -42 -88 -97
-253 -253 -408 -422 -420 -100 -7 -153 11 -214 72 -78 79 -97 186 -53 303 38
103 128 166 168 118 7 -9 19 -72 25 -140 13 -134 27 -170 70 -181 66 -17 165
79 215 207 17 45 29 83 26 86 -2 2 -21 0 -43 -6 -82 -23 -177 -7 -226 37 -37
33 -70 114 -75 184 -6 82 28 201 83 293 50 83 79 111 159 150 82 41 164 47
231 16z"/>
<path d="M2127 3039 c-25 -14 -65 -98 -82 -171 -16 -69 -20 -178 -6 -178 5 0
25 20 45 45 113 137 145 363 43 304z"/>
<path d="M4441 4441 c-87 -23 -169 -121 -192 -229 -7 -33 -9 -104 -7 -172 7
-175 50 -265 151 -317 70 -36 190 -38 253 -5 63 32 111 96 136 175 17 58 20
87 16 195 -5 138 -18 183 -71 258 -54 78 -184 121 -286 95z"/>
<path d="M5474 4430 c-11 -4 -33 -22 -47 -40 -23 -27 -27 -41 -27 -94 0 -49 5
-69 21 -90 40 -51 104 -68 212 -59 l67 6 0 143 0 144 -102 -1 c-57 0 -112 -4
-124 -9z"/>
<path d="M5372 3124 c-58 -40 -89 -179 -55 -244 16 -31 23 -35 57 -35 60 0 80
34 84 144 6 130 -25 178 -86 135z"/>
</g>
</svg>
