<svg width="143" height="87" viewBox="0 0 143 87" fill="none" xmlns="http://www.w3.org/2000/svg">
<path fill-rule="evenodd" clip-rule="evenodd" d="M1.23725 4.7115C1.23725 6.82147 1.44094 8.90875 1.57675 10.996C1.65974 12.2968 1.81065 13.59 1.85591 14.8983C1.81749 15.9674 2.14789 17.017 2.79144 17.8704C3.03286 18.1502 3.26674 18.43 3.49308 18.7174C3.36911 18.7704 3.24024 18.8109 3.10832 18.8384C1.97663 19.0804 1.7352 19.5342 1.75783 20.056C1.75783 20.8123 2.3463 21.4778 2.02943 22.2416C2.02461 22.2458 2.02076 22.2511 2.01812 22.2569C2.01548 22.2628 2.01411 22.2692 2.01411 22.2756C2.01411 22.2821 2.01548 22.2884 2.01812 22.2943C2.02076 22.3002 2.02461 22.3054 2.02943 22.3096C2.44438 22.5668 2.33876 22.8542 2.10488 23.1642C2.02943 23.2625 2.05961 23.3835 2.05961 23.497C2.05961 24.5557 2.60282 25.5918 1.96908 26.6808C1.89363 26.8094 1.96908 26.9531 2.03698 27.0892C2.1207 27.3072 2.18385 27.5325 2.22559 27.7623C2.27087 28.3538 2.27087 28.9479 2.22559 29.5395C2.08979 30.9083 1.871 32.2771 1.7352 33.646C1.63078 34.0311 1.44558 34.3895 1.19199 34.6972C0.573332 34.6972 1.30515 35.2417 0.927922 36.8374C0.740456 37.512 0.646528 38.2092 0.648777 38.9095C0.829847 42.0102 0.316815 45.3377 1.02601 48.3023C1.05428 48.7798 1.03152 49.2589 0.958107 49.7316C0.958107 50.3517 1.54657 51.0324 1.6522 51.5844C1.90775 53.1435 1.99628 54.7255 1.91626 56.3035C1.75692 56.7562 1.75692 57.2499 1.91626 57.7026C1.87907 58.467 2.04849 59.2273 2.40665 59.9033L2.87441 60.6595C1.66728 61.4687 1.26743 63.1174 1.84836 65.0534C1.55339 66.1026 1.33404 67.1717 1.19199 68.2524C1.13918 69.2506 1.40322 70.0825 0.822287 70.9825C0.536227 71.6638 0.399851 72.3989 0.422425 73.1378C0.339435 74.8621 0.482797 76.5788 0.248915 78.2803C0.0451639 79.1956 -0.0184359 80.1365 0.0603001 81.0709C0.271548 82.3642 0.47524 83.6725 0.731756 84.943C1.02599 86.4555 1.42586 86.7958 2.43684 86.327C3.81886 85.7183 5.31895 85.4263 6.82779 85.4724C8.33671 85.4724 9.5212 86.0396 11.0829 85.3287C11.1651 85.2837 11.2572 85.2601 11.3508 85.2601C11.4444 85.2601 11.5365 85.2837 11.6186 85.3287C12.4334 85.8656 13.203 86.637 14.2592 85.7295C15.4663 86.6673 16.2887 85.9866 17.526 86.4858C18.9519 87.0454 20.3703 86.3799 21.7736 86.4253C23.622 86.4858 25.5459 85.6161 27.334 86.6219C27.9362 86.8449 28.5829 86.9201 29.2201 86.8412C30.3292 86.8412 31.4382 86.8412 32.5548 86.7958C33.0377 86.7958 33.5356 86.5614 34.0184 86.5009C34.2739 86.5157 34.5269 86.5588 34.7729 86.6294C35.8943 86.773 37.0226 86.8563 38.1529 86.879C39.5411 86.879 41.0123 85.9866 42.3175 86.879C42.5212 87.0227 42.8607 86.8261 43.1399 86.758C43.5888 86.5779 44.0572 86.451 44.5356 86.3799C46.799 86.3799 49.1303 85.7144 51.4163 85.9337C53.3477 86.1076 55.3696 85.5707 57.3463 85.4573C59.323 85.3438 61.1941 85.3211 63.1104 85.306C63.9252 85.306 64.7626 85.7371 65.5397 85.3967C67.2448 84.6405 68.8065 85.3136 70.4512 85.0489C71.6886 84.8522 72.8957 85.2984 74.133 85.2531C76.1776 85.1699 78.2976 84.7539 80.2215 85.3287C82.1454 85.9034 84.2201 84.8069 86.1893 85.3287C87.5548 85.7144 89.1467 85.1169 90.6255 85.2909C92.2249 85.4799 93.8847 85.1321 95.4993 85.4043C96.9101 85.6463 98.4039 85.3665 99.8525 85.4043C100.75 85.4043 101.61 85.7522 102.501 85.79C106.205 85.9715 109.962 85.669 113.591 86.4555C114.288 86.6466 115.004 86.7557 115.726 86.7807C118.156 86.7807 120.6 86.6748 123.037 86.6294C125.149 86.5916 127.254 86.6294 129.367 86.5462C130.634 86.4782 131.925 86.1001 133.2 86.0169C134.475 85.9337 135.674 86.5992 136.972 86.4404C137.558 86.3163 138.161 86.3009 138.752 86.395C140.299 86.7883 140.473 86.6975 141.016 84.4287C141.18 83.7967 141.261 83.1459 141.257 82.4927C141.076 79.3921 141.8 76.0645 141.091 73.1C141.056 72.6228 141.077 72.1432 141.152 71.6707C141.212 71.0545 141.212 70.434 141.152 69.8178C140.912 68.318 140.841 66.796 140.94 65.2803C141.1 64.8276 141.1 64.3339 140.94 63.8812C140.975 63.1136 140.803 62.3509 140.442 61.6729L139.982 60.9167C141.189 60.1075 141.589 58.4588 141.001 56.5304C141.297 55.4785 141.519 54.407 141.665 53.3238C141.599 52.3759 141.811 51.4295 142.276 50.6013C142.564 49.9179 142.703 49.1803 142.683 48.4384C142.766 46.7217 141.582 44.9974 141.815 43.2958C142.015 42.3826 142.079 41.4447 142.004 40.5128C141.8 39.2423 141.597 37.9718 141.348 36.7315C141.431 36.1275 141.277 35.5146 140.918 35.0224C140.872 34.9619 140.918 34.8787 140.918 34.803C141.135 34.305 141.29 33.7817 141.378 33.2452C141.453 31.9597 141.431 30.6703 141.31 29.3882C141.221 28.7098 141.359 28.021 141.702 27.4295C141.781 27.2115 141.797 26.9755 141.748 26.7489C141.748 26.28 141.748 25.8111 141.748 25.3422C141.83 24.8974 141.83 24.441 141.748 23.9961C141.635 23.8023 141.583 23.5793 141.598 23.3557C141.613 23.1321 141.694 22.918 141.831 22.7407C141.989 22.529 142.057 22.166 141.831 22.0374C141.431 21.7954 141.695 21.6063 141.77 21.3568C141.914 20.8803 142.178 20.3736 141.551 20.0333C141.64 19.7871 141.708 19.5342 141.755 19.2771C141.766 19.2297 141.766 19.1807 141.755 19.1334C141.99 18.692 142.104 18.1964 142.087 17.6965C142.087 17.273 141.989 16.857 141.974 16.4335C141.959 16.01 141.974 15.5411 141.974 15.0949C141.974 14.6488 142.027 14.3387 142.027 13.9757C142.027 13.6127 141.868 13.3631 141.989 13.0757C142.321 12.2741 141.702 11.4876 142.366 10.686C142.442 10.6028 142.366 10.4893 142.366 10.391C142.366 10.2927 142.366 10.0507 142.366 9.87675V9.81625C142.686 9.26044 142.887 8.64378 142.956 8.0057C143.025 7.36762 142.96 6.72216 142.766 6.11059L142.653 5.7854C142.681 5.6301 142.677 5.47061 142.641 5.31701C142.604 5.16341 142.536 5.01904 142.442 4.89301C142.411 4.68741 142.411 4.47848 142.442 4.27288C142.766 2.50324 141.77 1.50497 140.669 0.446206C139.817 1.00368 138.795 1.2371 137.787 1.10416C137.555 1.0627 137.317 1.0627 137.085 1.10416C135.901 1.41422 135.848 1.19491 134.731 0.960468C133.876 0.788073 133.008 0.6919 132.136 0.673086C131.381 0.673086 130.551 0.771401 129.759 0.816777C129.555 0.855109 129.345 0.855109 129.141 0.816777C128.659 0.599168 128.152 0.444138 127.632 0.355459C126.123 0.355459 124.614 0.355465 123.15 0.491591C122.591 0.575628 122.043 0.717554 121.513 0.915094C121.055 0.714946 120.573 0.57269 120.08 0.491591C119.37 0.516532 118.662 0.582178 117.959 0.688214C117.641 0.748036 117.316 0.763305 116.994 0.733588C116.194 0.574774 115.417 0.355459 114.655 0.166394C114.429 0.567211 114.27 0.69577 114.021 1.14196C113.901 0.794084 113.818 0.756272 113.765 0.552082C113.659 0.151265 113.425 -0.0982937 112.957 0.0983336C112.112 0.453775 111.275 0.234454 110.438 0.34033C109.381 0.476457 108.348 -0.0453634 107.284 0.574769C107.107 0.644337 106.91 0.644337 106.733 0.574769C105.594 0.143701 104.236 0.869714 103.119 0.27227C102.961 0.189081 102.667 0.347899 102.433 0.370587C101.413 0.532124 100.386 0.638154 99.3545 0.688214C98.2832 0.688214 97.2345 0.453773 96.1556 0.438648C95.0768 0.423523 94.1111 0.196648 93.085 0.748716C92.9266 0.831905 92.5946 0.907527 92.5493 0.839464C92.0061 0.0832052 91.1309 0.567209 90.467 0.589897C89.2599 0.589897 88.1131 0.128579 86.9362 0.400832C85.631 0.703336 84.4314 0.438643 83.1639 0.468893C81.7002 0.468893 80.2441 0.529396 78.788 0.506708C76.5247 0.506708 74.2085 0.506708 71.9451 0.317644C70.1947 0.196642 68.4369 0.589896 66.6639 0.423519C64.8909 0.257142 63.0198 0.121015 61.194 0.907524C61.0625 0.937655 60.9258 0.937655 60.7942 0.907524C59.8595 0.739135 58.914 0.638047 57.965 0.605025C55.5658 0.688214 53.1591 0.794091 50.7599 1.06634C49.559 1.22861 48.3385 1.16449 47.1611 0.877279C46.7461 0.813413 46.3238 0.813413 45.9087 0.877279C45.0335 0.922655 44.1584 1.00584 43.2907 1.04366C42.4516 1.0013 41.6104 1.03928 40.7784 1.15709C40.0325 1.42827 39.2181 1.44422 38.4622 1.20246C38.252 1.11809 38.0264 1.07919 37.8002 1.08832C37.574 1.09744 37.3522 1.15438 37.1495 1.25541C36.6364 1.67891 36.3196 1.44447 35.8669 1.39153C34.9087 1.28565 33.8751 1.02097 33.1207 1.99654C31.8136 1.56261 30.436 1.38293 29.0617 1.46716C28.2695 1.53522 27.4848 1.64866 26.6927 1.70916C25.9005 1.76966 25.0329 1.79991 24.203 1.83016C23.5089 1.83016 22.8223 1.83017 22.1282 1.8831C21.5709 1.98462 21.0045 2.02771 20.4382 2.01167C18.9972 1.76966 17.4204 2.46542 16.0548 1.8831C15.9039 1.81504 15.6776 1.8831 15.489 1.92848L14.395 2.01923C13.5576 2.07973 9.55138 1.95116 8.70639 2.01923C8.38866 2.02423 8.07098 2.00654 7.75576 1.96629C7.10693 1.96629 6.46565 1.87554 5.81682 1.8831C5.16799 1.89067 4.70776 2.01923 4.157 2.01167C1.85591 2.01167 1.21462 2.49567 1.21462 4.74176" fill="#C10230"/>
<path d="M72.6692 19.1106H72.0505C72.0505 19.1106 70.0965 20.6836 68.3839 25.9547C68.3839 25.9547 65.4868 35.0298 65.366 35.3323C65.1246 34.4248 61.1863 23.1263 61.1863 23.1263C60.281 20.5702 57.9422 19.1106 54.7659 19.1106H53.604L53.5663 19.3072C52.5302 25.8523 51.9253 32.4586 51.7556 39.0834C51.7556 41.0724 52.9628 42.3504 54.8338 42.3504H56.6596V42.1084C56.6596 38.5011 56.9765 30.3562 57.5046 26.4841C57.7988 27.2404 58.1383 28.1554 58.4175 28.9646L61.639 38.5616C62.4614 41.0118 63.8269 42.3429 65.4943 42.3429H66.9278C67.9161 41.0648 68.1274 40.0741 68.7913 38.1229L71.9449 28.3596C72.1562 27.7017 72.4051 27.0816 72.639 26.5295C72.9785 29.5545 73.3935 36.444 73.3935 39.0758C73.3935 41.1253 74.5629 42.3429 76.532 42.3429H78.4936V42.1009C78.4936 37.3364 77.8146 27.4748 77.3996 24.0338C77.0375 20.85 75.3475 19.103 72.6541 19.103" fill="white"/>
<path d="M91.0631 18.71C84.356 18.71 80.0254 23.5651 80.0254 31.0824C80.0254 37.7374 84.5521 42.7514 90.5878 42.7514C97.2949 42.7514 101.626 37.8962 101.626 30.379C101.626 22.7181 96.3443 18.71 91.0631 18.71ZM90.9952 38.3046C87.0645 38.3046 85.1557 35.7107 85.1557 30.379C85.1557 26.0305 87.3059 23.2248 90.6331 23.2248C94.4054 23.2248 96.4801 25.9852 96.4801 31.0143C96.4801 35.7182 94.5336 38.3046 90.9952 38.3046Z" fill="white"/>
<path d="M119.227 19.7232C116.935 19.1935 114.593 18.9096 112.241 18.8762C111.361 18.8447 110.48 18.8877 109.608 19.0047C106.28 19.3753 103.195 21.7121 103.195 25.7127C103.15 27.0486 103.532 28.3639 104.283 29.468C105.035 30.5721 106.117 31.4077 107.374 31.8536C106.335 32.6246 105.532 33.6727 105.058 34.8786L103.248 39.1363C102.943 39.8587 102.553 40.5417 102.086 41.1707L101.882 41.4505L101.776 41.6169L101.912 41.753C102.508 42.3958 102.991 42.5622 104.259 42.5622C105.001 42.6242 105.744 42.4462 106.378 42.0542C107.012 41.6622 107.504 41.077 107.782 40.3842L109.457 36.2625C110.43 33.8955 111.267 33.7518 112.437 33.5627C113.081 33.4598 113.731 33.3967 114.383 33.3736V42.3958H116.073C116.518 42.4415 116.966 42.3878 117.387 42.2386C117.808 42.0893 118.191 41.8483 118.508 41.5329C118.825 41.2175 119.068 40.8355 119.22 40.4146C119.371 39.9936 119.428 39.5441 119.385 39.0985V19.8139L119.227 19.7232ZM114.383 29.131C113.396 29.2687 112.399 29.3218 111.403 29.2898C109.955 29.2898 108.257 28.5336 108.257 26.4463C108.257 24.1775 109.502 23.3381 111.373 23.3381H112.082C112.852 23.3503 113.621 23.4109 114.383 23.5196V29.131Z" fill="white"/>
<path d="M37.2324 60.4479L36.6288 60.9092C35.3929 62.0018 33.8028 62.6065 32.1549 62.6108C29.0239 62.6108 27.5753 60.0017 26.5719 57.4606C26.235 56.576 25.9701 55.6655 25.7797 54.7381C24.699 49.5959 24.5076 44.3058 25.2139 39.0987C25.8024 34.5233 26.7228 29.7135 29.205 25.486C30.1179 23.9735 31.4155 22.219 33.4601 22.461C35.5047 22.703 36.2139 24.5482 36.4779 26.1818C37.0362 29.2068 36.8174 33.4116 35.4745 35.4157C34.9841 36.1719 35.7008 37.2458 36.9834 37.7752C37.5792 38.0069 38.2204 38.0968 38.8567 38.0377C39.493 37.9787 40.1069 37.7723 40.6501 37.4349C41.2914 37.0821 41.8501 36.596 42.2886 36.009C42.7272 35.4221 43.0354 34.7479 43.1926 34.0317C43.7358 32.0306 43.9423 29.9526 43.8037 27.8833C43.4793 22.9223 41.1028 19.0729 37.4436 17.5907C34.1919 16.2748 30.3517 17.0008 26.9265 19.6023C23.6823 22.045 21.2756 25.6978 19.5554 30.7571C17.5712 36.5954 16.8469 43.0615 17.3373 50.5333C17.6995 55.9481 19.0198 60.1605 21.3812 63.3897C22.3823 64.8094 23.7083 65.9678 25.2481 66.7678C26.7879 67.5679 28.4966 67.9862 30.231 67.9878H30.5479C33.577 67.8757 36.4554 66.6353 38.6206 64.509C39.0081 64.1723 39.3712 63.8084 39.707 63.4199L37.2324 60.4479Z" fill="white"/>
<path d="M123.437 61.446C122.682 61.136 121.43 62.2552 121.211 62.4443C120.835 62.8306 120.351 63.0941 119.823 63.2006C118.835 63.1174 118.774 61.5141 118.744 60.5536C118.684 58.1336 118.827 55.6228 118.963 53.2028L119.001 52.628C119.099 50.866 118.895 49.9358 118.329 49.603C117.763 49.2703 117.175 49.4593 116.149 50.0265C115.581 50.356 115.035 50.7196 114.512 51.1155C114.383 51.1987 114.323 51.2441 114.202 51.3349C114.082 51.4256 114.014 51.4483 113.953 51.418C113.936 51.4047 113.922 51.3875 113.913 51.3678C113.904 51.348 113.9 51.3264 113.9 51.3046C113.81 48.0224 112.972 46.0108 111.237 45.1335C110.014 44.5784 108.624 44.5214 107.359 44.9747C104.673 45.8293 102.833 48.151 101.837 51.8642C101.552 52.7749 101.472 53.7375 101.603 54.6829C101.733 55.6282 102.071 56.5329 102.591 57.332C102.911 57.7838 103.327 58.1596 103.808 58.4328C104.289 58.7059 104.824 58.8697 105.375 58.9126C106.069 58.9748 106.768 58.9186 107.442 58.7462C107.723 58.6791 107.998 58.5907 108.265 58.4815C108.299 58.4685 108.336 58.4655 108.372 58.4727C108.408 58.4799 108.441 58.4971 108.468 58.5223C108.495 58.5476 108.514 58.5798 108.523 58.6153C108.533 58.6509 108.532 58.6884 108.521 58.7235C107.767 61.2267 106.839 62.8375 105.503 63.8661C105.25 64.0952 104.947 64.2624 104.619 64.3542C104.29 64.4461 103.945 64.4602 103.61 64.3954C102.968 64.1761 102.531 63.4123 102.357 62.2552C102.289 61.8393 102.259 59.9864 102.221 59.5554C102.116 58.2924 101.701 57.7177 101.376 57.6042C101.034 57.5674 100.689 57.6174 100.371 57.7495C100.053 57.8817 99.7737 58.0918 99.5582 58.3605C98.4742 59.6182 97.8984 61.2366 97.9436 62.898C97.9451 63.5717 98.0791 64.2384 98.338 64.86C98.5969 65.4816 98.9757 66.0459 99.4526 66.5205C100.448 67.4287 101.743 67.9376 103.089 67.9499C106.952 67.9499 110.302 64.5089 112.263 59.2756C112.482 58.7008 112.784 57.6042 113.018 57.6042C113.252 57.6042 113.161 58.4059 113.191 58.9731C113.205 60.2833 113.383 61.5866 113.719 62.8527C114.413 65.6735 116.247 67.4658 118.548 67.239C121.075 66.9894 122.886 64.5164 123.625 62.7997C123.852 62.2779 123.829 61.6351 123.459 61.4914L123.437 61.446ZM106.907 54.9876C106.68 54.6604 106.521 54.2911 106.44 53.9014C106.358 53.5118 106.355 53.1096 106.431 52.7188C106.463 51.568 106.917 50.4693 107.706 49.6333C107.952 49.435 108.259 49.3281 108.574 49.3308C109.268 49.3308 109.6 50.5257 109.645 51.418C109.66 51.7027 109.66 51.9879 109.645 52.2726C109.669 53.1205 109.471 53.9598 109.072 54.7078C108.962 54.9089 108.802 55.0781 108.608 55.1987C108.414 55.3194 108.191 55.3873 107.963 55.396C107.766 55.4113 107.568 55.3833 107.383 55.3141C107.198 55.2449 107.03 55.136 106.892 54.9951" fill="white"/>
<path d="M94.0658 51.6072C93.2144 51.2575 92.2738 51.1891 91.3809 51.4122C90.4881 51.6353 89.6895 52.1381 89.1015 52.8475C88.7223 53.3242 88.4938 53.9036 88.4451 54.5113C88.4682 54.669 88.5405 54.8154 88.6516 54.9295C88.7627 55.0436 88.907 55.1195 89.0637 55.1465C89.428 55.1579 89.7851 55.0431 90.0747 54.8213C90.2284 54.6711 90.4184 54.5635 90.626 54.5092C90.8337 54.4548 91.0519 54.4555 91.2592 54.5113C91.6214 54.6776 91.825 55.1995 91.8326 55.9784C91.9009 58.142 91.7416 60.3068 91.3573 62.4369C91.2239 63.1627 90.8982 63.8393 90.4142 64.3956C90.1875 64.634 89.8871 64.7886 89.5617 64.8342C89.2623 64.7735 88.9946 64.6072 88.8072 64.3653C88.4346 63.8015 88.2161 63.1496 88.1735 62.4747C87.9505 59.9958 87.8699 57.5061 87.9321 55.018C87.9321 53.9138 88.0075 52.7492 88.0754 51.6753C88.1508 50.3518 88.2338 48.9906 88.2188 47.6671C88.2037 46.3437 87.9019 45.6252 87.3285 45.3303C87.0204 45.2211 86.6893 45.1944 86.3678 45.2528C86.0463 45.3111 85.7455 45.4526 85.4951 45.663C83.9862 46.5932 83.1035 48.3099 82.5452 50.072C81.0891 54.655 80.9382 57.7783 78.9766 61.4159C78.2222 62.7923 77.2791 63.4881 76.8415 63.4881C76.3511 63.4881 75.7777 62.8679 75.4835 61.726C75.3354 61.0375 75.2595 60.3354 75.2571 59.6311C75.2119 58.406 75.1817 57.1657 75.1591 55.9557C75.1138 54.1256 75.0761 52.2349 74.9705 50.3821C74.8271 47.8335 74.5404 46.6386 73.8614 46.4117C72.7976 46.0563 71.5226 46.6764 70.6172 47.5991C69.7671 48.5882 69.1278 49.7412 68.7386 50.9871C68.1502 52.787 67.622 54.6398 67.109 56.4397C66.7469 57.7102 66.3545 59.0261 65.9773 60.3042C65.8415 60.7504 65.4718 62.3688 64.9135 62.5352C64.8904 62.5477 64.8644 62.5543 64.8381 62.5543C64.8117 62.5543 64.7858 62.5477 64.7626 62.5352C64.2421 62.1268 64.1817 60.2059 64.1289 59.6311C63.8196 55.8498 63.6234 52.1744 63.3744 48.5519C63.2914 47.2587 62.9972 46.5025 62.4691 46.2302C62.1939 46.1329 61.899 46.1054 61.6107 46.1503C61.3223 46.1952 61.0496 46.311 60.8168 46.4874C59.1193 47.41 57.9574 49.2023 57.2784 51.9627C56.4636 55.2524 55.4602 58.5648 54.5699 61.4915C54.4491 61.9748 54.2901 62.4477 54.0946 62.9057C54.0116 63.1024 53.7174 63.7074 53.4684 63.7074C53.2194 63.7074 53.144 63.3368 53.144 63.3368L53.0761 62.157C53.0308 61.2268 52.978 60.2588 52.9403 59.3059C52.895 58.1716 52.7064 57.5968 52.0877 57.317C51.8086 57.1884 51.3333 57.0447 50.7373 57.8161C50.1748 58.7876 49.6831 59.7986 49.2661 60.8411C48.2777 63.0267 46.5877 64.3578 44.9128 64.4939C43.4039 64.6224 42.393 63.0948 41.895 61.915C41.8673 61.8531 41.8612 61.7837 41.8776 61.7178C41.894 61.652 41.932 61.5936 41.9856 61.552C43.3075 60.4852 44.5206 59.2895 45.607 57.9825L45.8937 57.6195C46.1879 57.2489 46.5048 56.7952 46.9046 56.1902C47.6288 55.0394 48.0802 53.7375 48.2241 52.3845C48.368 51.0315 48.2005 49.6635 47.7345 48.3856C47.3423 47.4013 46.5888 46.6051 45.629 46.1606C44.6692 45.7161 43.5759 45.6572 42.574 45.9958C39.1035 47.0924 36.3422 51.6526 36.0178 56.8405C35.8869 58.6668 36.0758 60.502 36.5761 62.2629C36.861 63.2661 37.3207 64.2109 37.9341 65.0535C39.3299 66.9064 40.3182 67.3677 41.2085 67.6399C43.8717 68.4491 46.4293 67.587 48.821 65.0838C49.0397 64.8115 49.334 64.4485 49.5075 64.5695C49.681 64.6905 49.8395 65.288 49.9451 65.5829C50.1759 66.3838 50.6877 67.074 51.3861 67.5265C51.6283 67.663 51.8956 67.7488 52.1718 67.7787C52.448 67.8086 52.7274 67.782 52.9931 67.7004C53.7476 67.4509 54.9321 66.7324 56.1996 64.6376C56.9307 63.4312 57.5616 62.1665 58.0857 60.8563C58.3724 60.1908 58.6063 59.4572 58.8402 59.4194C59.074 59.3816 59.1646 60.6067 59.2475 61.0227C59.3798 61.7965 59.5844 62.5561 59.8587 63.2914C60.7112 65.6434 62.2654 66.8837 63.6309 66.8534C64.9965 66.8232 66.513 65.3863 67.9087 62.5805C68.3991 61.5974 68.7839 60.6975 69.2969 59.5177C69.4705 59.1169 69.5157 58.8219 69.6968 58.8219C69.8779 58.8219 69.991 59.4345 70.1042 59.9941C70.2695 61.3292 70.5395 62.6492 70.9115 63.9418C71.6659 65.961 73.1296 67.1862 74.5404 67.3677C75.9513 67.5492 77.2263 66.8458 78.539 65.3485C79.2001 64.6123 79.7678 63.7969 80.229 62.9209C80.7429 61.9402 81.1989 60.9301 81.5946 59.8958C81.7606 59.4572 81.8737 59.2001 82.0246 59.2303C82.1755 59.2606 82.1831 59.7975 82.2661 60.3193C82.4193 61.4271 82.716 62.5102 83.1488 63.541C84.1522 66.014 86.7249 68.0786 89.275 68.0786C89.7198 68.078 90.163 68.0246 90.5953 67.9197C93.6131 67.1635 95.6879 64.8191 96.6838 60.879C97.7702 56.5154 96.6838 52.666 94.1111 51.7131L94.0658 51.6072ZM42.5061 51.9702C42.7132 51.5877 43.0506 51.2924 43.4567 51.1383C43.6123 51.0844 43.7824 51.091 43.9333 51.1568C44.0842 51.2227 44.2049 51.3429 44.2716 51.4938C44.4453 52.0888 44.4453 52.7213 44.2716 53.3164C43.8744 55.2007 42.9044 56.9154 41.4951 58.2245C41.4679 58.2497 41.4342 58.2669 41.3979 58.2743C41.3616 58.2817 41.3239 58.2791 41.289 58.2666C41.2541 58.2542 41.2232 58.2324 41.1997 58.2036C41.1762 58.1749 41.161 58.1403 41.1557 58.1035C41.0357 55.9718 41.5084 53.8485 42.5212 51.9702" fill="white"/>
<path d="M121.868 56.8782C122.191 56.8796 122.508 56.9656 122.788 57.1277C123.086 57.2841 123.33 57.5265 123.49 57.8235C123.655 58.1081 123.743 58.4317 123.743 58.7613C123.743 59.0908 123.655 59.4144 123.49 59.699C123.327 59.9908 123.087 60.2317 122.796 60.3948C122.511 60.5586 122.188 60.6449 121.86 60.6449C121.532 60.6449 121.209 60.5586 120.925 60.3948C120.633 60.2317 120.393 59.9908 120.23 59.699C120.068 59.4131 119.983 59.0901 119.981 58.7613C119.981 58.4311 120.069 58.107 120.238 57.8235C120.397 57.5265 120.642 57.2841 120.94 57.1277C121.222 56.9653 121.542 56.8793 121.868 56.8782ZM121.868 57.1958C121.603 57.1997 121.344 57.2699 121.113 57.4C120.865 57.5299 120.661 57.7297 120.525 57.9747C120.395 58.2062 120.322 58.4656 120.313 58.731C120.321 58.9967 120.393 59.2565 120.525 59.4873C120.657 59.734 120.859 59.9365 121.106 60.0696C121.34 60.2109 121.609 60.2856 121.883 60.2856C122.156 60.2856 122.425 60.2109 122.66 60.0696C122.906 59.9365 123.108 59.734 123.241 59.4873C123.37 59.2561 123.44 58.9961 123.444 58.731C123.438 58.4662 123.368 58.2068 123.241 57.9747C123.105 57.7297 122.9 57.5299 122.652 57.4C122.413 57.2649 122.142 57.1945 121.868 57.1958ZM121.045 59.8049V57.7781H121.739C121.912 57.7712 122.086 57.7916 122.252 57.8386C122.356 57.8713 122.447 57.9378 122.509 58.0277C122.567 58.1179 122.598 58.2228 122.599 58.3302C122.599 58.4746 122.542 58.613 122.441 58.7159C122.329 58.8249 122.182 58.8895 122.026 58.8974C122.088 58.9247 122.147 58.9603 122.2 59.0033C122.309 59.1282 122.407 59.2623 122.494 59.4041L122.743 59.8049H122.343L122.162 59.4873C122.081 59.3078 121.965 59.146 121.822 59.0108C121.747 58.9606 121.656 58.9367 121.566 58.9428H121.37V59.8049H121.045ZM121.37 58.6629H121.77C121.903 58.6753 122.038 58.6463 122.154 58.5798C122.211 58.5349 122.249 58.4696 122.259 58.3976C122.268 58.3256 122.25 58.2526 122.207 58.1941C122.172 58.1469 122.125 58.1102 122.071 58.0882C121.961 58.0708 121.849 58.0708 121.739 58.0882H121.37V58.6629Z" fill="white"/>
</svg>
