<svg width="19" height="19" viewBox="0 0 19 19" fill="none" xmlns="http://www.w3.org/2000/svg">
<g style="mix-blend-mode:darken">
<g style="mix-blend-mode:multiply" opacity="0.8">
<path d="M18.0252 11.1222C18.2543 15.6935 13.4571 19.1861 9.17607 18.9173C7.79723 18.8161 6.48038 18.3039 5.39566 17.4466C4.31094 16.5894 3.50818 15.4267 3.09106 14.1085C2.84507 13.4916 2.68015 12.8454 2.6004 12.186C2.49801 11.4983 2.50114 10.799 2.60969 10.1122C2.7238 8.58049 3.32209 7.12481 4.31806 5.95559C5.31402 4.78637 6.65603 3.96422 8.15006 3.60799C8.81499 3.43438 9.49953 3.34706 10.1868 3.34824C11.2885 3.4428 12.3656 3.72699 13.3707 4.18824C13.8752 4.42614 14.3562 4.7112 14.8071 5.03961C16.1994 6.04655 17.2139 7.49124 17.6883 9.14272C17.8756 9.78754 17.9887 10.4517 18.0252 11.1222Z" fill="#582C83"/>
</g>
<g style="mix-blend-mode:darken">
<path d="M15.946 8.30918C16.1751 12.8805 11.3779 16.3923 7.09684 16.1235C5.71645 16.0184 4.39913 15.5023 3.31464 14.6418C2.23015 13.7814 1.42814 12.6159 1.01192 11.2955C0.764256 10.6792 0.599279 10.0327 0.521266 9.37306C0.419006 8.69174 0.42211 7.99877 0.530469 7.3184C1.04332 4.28663 2.82345 1.27973 6.07083 0.814197C6.73577 0.640587 7.42028 0.553298 8.1075 0.554479C9.2107 0.640678 10.2893 0.925248 11.2914 1.39448C11.7998 1.62523 12.2814 1.91071 12.7278 2.24585C14.1346 3.2385 15.153 4.68878 15.6091 6.34896C15.8059 6.985 15.9191 7.64393 15.946 8.30918Z" fill="white"/>
</g>
<g style="mix-blend-mode:darken">
<path d="M16.3868 8.31106C16.4803 10.2523 15.8489 12.1589 14.6153 13.6607C13.3751 15.1891 11.672 16.2732 9.76238 16.7499C8.78806 16.9831 7.78035 17.0436 6.78512 16.9286C5.8055 16.7821 4.86232 16.4522 4.00506 15.956C2.30319 14.959 1.06196 13.3325 0.549612 11.4278C0.150885 10.3208 -0.013866 9.14307 0.0658086 7.96912C0.183794 6.83015 0.48039 5.71686 0.944711 4.67015C1.37737 3.59745 2.03675 2.63094 2.8777 1.83678C3.75699 1.05155 4.84779 0.542221 6.01434 0.372198C6.71092 0.182493 7.42621 0.0697999 8.14738 0.0361135C9.2058 0.0930176 10.2484 0.318072 11.2361 0.70284C12.2315 1.1221 13.1503 1.70376 13.9552 2.42408C14.7679 3.1541 15.4181 4.04677 15.8637 5.04423C16.0877 5.54761 16.2466 6.07744 16.3367 6.62097C16.4877 7.21694 16.3699 7.79251 16.3868 8.31106ZM15.5035 8.30711C15.4574 7.8275 15.3296 7.35931 15.1256 6.9228C14.9931 6.49974 14.8992 6.01924 14.7283 5.59602C14.3891 4.73742 13.8686 3.96219 13.2022 3.32325C12.5145 2.67072 11.7339 2.12365 10.8859 1.69983C10.0243 1.27816 9.09671 1.00769 8.14351 0.900222C7.49767 0.869691 6.85078 0.931437 6.22239 1.08363C5.19426 1.23549 4.23551 1.69283 3.4705 2.39631C2.6901 3.11237 2.0821 3.99599 1.69223 4.98075C1.28288 5.95779 1.03193 6.99382 0.948795 8.04988C0.883803 9.09292 1.07701 10.1359 1.51129 11.0865C1.7681 11.8627 2.18718 12.5754 2.74073 13.1772C3.29427 13.779 3.96958 14.256 4.72174 14.5766C6.18102 15.2359 7.8262 15.3589 9.36729 14.9239C10.9479 14.5284 12.404 13.7426 13.6022 12.6384C14.1977 12.0884 14.6738 11.4217 15.0008 10.6799C15.3279 9.9381 15.4989 9.13699 15.5034 8.3263L15.5035 8.30711Z" fill="#333538"/>
</g>
</g>
</svg>
