<svg width="14" height="15" viewBox="0 0 14 15" fill="none" xmlns="http://www.w3.org/2000/svg">
<g style="mix-blend-mode:darken">
<g style="mix-blend-mode:multiply" opacity="0.8">
<path d="M13.0863 8.73232C13.2518 12.0338 9.78721 14.5562 6.6954 14.362C5.69959 14.289 4.74855 13.919 3.96516 13.2999C3.18177 12.6808 2.602 11.8411 2.30075 10.8891C2.1231 10.4436 2.004 9.97685 1.9464 9.50066C1.87245 9.00397 1.87471 8.4989 1.95311 8.00289C2.03552 6.89671 2.46761 5.8454 3.18691 5.00098C3.9062 4.15656 4.87541 3.56279 5.95441 3.30552C6.43463 3.18014 6.92901 3.11708 7.42533 3.11793C8.22103 3.18622 8.99894 3.39146 9.72477 3.72459C10.0892 3.8964 10.4365 4.10227 10.7622 4.33945C11.7677 5.06667 12.5004 6.11004 12.843 7.30275C12.9783 7.76845 13.0599 8.24809 13.0863 8.73232Z" fill="#FFBA52"/>
</g>
<g style="mix-blend-mode:darken">
<path d="M11.5838 6.70068C11.7493 10.0021 8.28468 12.5384 5.19287 12.3443C4.19594 12.2683 3.24456 11.8956 2.46133 11.2742C1.6781 10.6527 1.09889 9.81102 0.798289 8.85746C0.619423 8.41231 0.500275 7.94544 0.443934 7.46902C0.370081 6.97697 0.372322 6.4765 0.45058 5.98513C0.820968 3.79556 2.10659 1.62395 4.45188 1.28774C4.9321 1.16235 5.42646 1.09931 5.92278 1.10017C6.71952 1.16242 7.49849 1.36794 8.22224 1.70682C8.58935 1.87347 8.9372 2.07965 9.25963 2.32169C10.2756 3.03859 11.0111 4.086 11.3405 5.28499C11.4826 5.74435 11.5644 6.22023 11.5838 6.70068Z" fill="white"/>
</g>
<g style="mix-blend-mode:darken">
<path d="M11.9026 6.70215C11.9701 8.10411 11.5141 9.48112 10.6232 10.5657C9.72752 11.6695 8.49753 12.4525 7.11838 12.7967C6.41471 12.9652 5.68694 13.0089 4.96817 12.9258C4.26068 12.82 3.57951 12.5817 2.96039 12.2234C1.73129 11.5034 0.834857 10.3287 0.464834 8.9531C0.17687 8.15359 0.0578852 7.30303 0.115427 6.4552C0.200637 5.63262 0.414841 4.82859 0.750178 4.07265C1.06264 3.29794 1.53885 2.59992 2.1462 2.02637C2.78123 1.45927 3.56902 1.09143 4.41151 0.968634C4.91458 0.831627 5.43117 0.750239 5.952 0.725911C6.71641 0.767007 7.46939 0.929544 8.18268 1.20743C8.90157 1.51022 9.56519 1.9303 10.1464 2.45052C10.7334 2.97775 11.203 3.62244 11.5248 4.34281C11.6866 4.70636 11.8014 5.08901 11.8664 5.48155C11.9755 5.91196 11.8904 6.32765 11.9026 6.70215ZM11.2646 6.69929C11.2314 6.35292 11.139 6.01479 10.9917 5.69954C10.896 5.394 10.8282 5.04698 10.7048 4.74132C10.4598 4.12124 10.0839 3.56135 9.60266 3.09991C9.10599 2.62865 8.54225 2.23355 7.92981 1.92746C7.30756 1.62293 6.63762 1.42759 5.94921 1.34998C5.48278 1.32793 5.01559 1.37252 4.56176 1.48244C3.81924 1.59211 3.12682 1.92241 2.57433 2.43047C2.01071 2.94761 1.57161 3.58576 1.29004 4.29697C0.994404 5.00259 0.813166 5.75083 0.753127 6.51352C0.706189 7.26681 0.845723 8.02007 1.15936 8.70657C1.34483 9.26719 1.6475 9.78192 2.04728 10.2165C2.44705 10.6511 2.93476 10.9956 3.47798 11.2272C4.53188 11.7033 5.72005 11.7921 6.83303 11.478C7.97457 11.1924 9.02618 10.6249 9.8915 9.82742C10.3216 9.43014 10.6654 8.94869 10.9016 8.41295C11.1378 7.87721 11.2614 7.29864 11.2646 6.71315L11.2646 6.69929Z" fill="#333538"/>
</g>
</g>
</svg>
