<svg width="267" height="266" viewBox="0 0 267 266" fill="none" xmlns="http://www.w3.org/2000/svg">
<path d="M258.269 135.616C261.242 211.394 181.065 268.381 110.247 263.067C64.4528 258.125 23.1356 228.268 10.4646 182.183C6.4233 171.665 3.79066 160.659 2.63512 149.45C1.49126 138.068 2.04358 126.579 4.2741 115.36C13.4283 65.4501 43.4222 15.8847 97.1471 8.80035C108.28 5.99833 119.732 4.65996 131.211 4.81907C149.447 6.54914 167.232 11.4984 183.741 19.4371C192.072 23.4369 200.001 28.2258 207.419 33.7383C230.667 52.3369 246.978 73.4914 254.116 102.267C257.027 113.139 258.424 124.361 258.269 135.616Z" fill="#8BBF45"/>
<path d="M263.261 132.874L263.261 132.91L263.262 132.946C264.728 170.309 245.701 203.117 217.428 225.969C189.151 248.823 151.748 261.609 116.725 258.987C71.4067 254.089 30.6301 224.556 18.1318 179.099L18.114 179.034L18.0899 178.971C14.0919 168.566 11.4873 157.678 10.344 146.589C9.21384 135.342 9.75971 123.989 11.9638 112.902L11.9658 112.892L11.9676 112.882C21.0791 63.2059 50.8275 14.3964 103.679 7.42714L103.757 7.41686L103.834 7.39765C114.834 4.629 126.149 3.30423 137.491 3.45667C155.548 5.17625 173.158 10.0801 189.505 17.9411L189.506 17.9415C197.751 21.9001 205.599 26.6391 212.941 32.0935C236.014 50.5562 252.103 71.4687 259.149 99.8712L259.152 99.8834L259.155 99.8955C262.033 110.647 263.415 121.745 263.261 132.874Z" stroke="#333538" stroke-width="2.72325"/>
<path d="M69.5962 157.041C75.469 149.041 87.7512 127.085 95.0133 122.547C102.275 118.008 127.692 170.657 127.692 170.657C147.663 111.914 176.711 57.1885 190.327 57.1885C203.943 57.1885 220.283 106.12 212.754 111.914C157.648 154.318 135.852 229.115 127.692 217.86C101.368 181.55 59.6005 170.657 69.5962 157.041Z" fill="white"/>
<path d="M65.0574 150.687C70.9302 142.687 83.2124 120.731 90.4745 116.192C97.7366 111.653 123.154 164.303 123.154 164.303C143.124 105.559 172.172 50.834 185.788 50.834C199.405 50.834 215.744 99.7658 208.215 105.559C153.109 147.963 131.313 222.761 123.154 211.506C96.829 175.196 55.0617 164.303 65.0574 150.687Z" stroke="#333538" stroke-width="1.8155"/>
</svg>
