<svg width="137" height="131" viewBox="0 0 137 131" fill="none" xmlns="http://www.w3.org/2000/svg">
<path d="M76.5688 91.4345C77.7106 89.7882 79.3966 88.5975 81.3299 88.072C87.4347 86.2167 91.5857 84.6002 96.6098 82.5696C105.128 75.0263 102.514 58.4875 98.1615 49.5362C92.5778 37.9919 77.412 37.1138 66.704 40.8295C61.0856 42.6569 56.4012 46.603 53.6461 51.8294C51.209 56.8537 52.1577 62.8352 53.5933 67.9774C56.6453 78.7088 63.6143 90.1216 75.637 91.6275L76.5688 91.4345Z" fill="#F1A232"/>
<path d="M90.685 86.3107C97.3856 80.1753 97.603 70.2646 95.9348 61.9727C94.1698 53.1386 90.2261 44.9708 81.1953 41.8579C76.6039 40.3975 71.7485 39.9595 66.9698 40.5746C62.1911 41.1897 57.6049 42.8429 53.5329 45.4184C51.1735 46.8824 49.1437 48.8203 47.5722 51.1095C46.0006 53.3987 44.9214 55.9892 44.4029 58.717C43.9228 63.8221 44.6505 68.9685 46.5272 73.7403C50.0572 84.0644 57.2418 93.8906 68.749 95.6354C69.0579 95.6386 69.3574 95.5296 69.5921 95.3287C69.8268 95.1279 69.9807 94.8487 70.0253 94.543C70.0699 94.2373 70.0021 93.9258 69.8346 93.6663C69.667 93.4068 69.411 93.2168 69.1141 93.1316C59.9897 91.8314 53.8684 84.6355 50.336 76.5769C48.4649 72.4777 47.2748 68.1009 46.8124 63.6186C46.5415 60.9518 46.9216 58.259 47.9203 55.7714C48.9189 53.2838 50.5062 51.0756 52.5459 49.3364C55.962 46.5998 59.9386 44.6489 64.1935 43.622C68.4483 42.5952 72.8771 42.5176 77.1652 43.3949C81.3028 44.0699 85.0935 46.1159 87.9284 49.2043C90.2042 52.0881 91.8187 55.4366 92.6577 59.013C94.936 66.9971 95.845 78.105 89.1394 84.3037C87.9579 85.3932 89.4772 87.4108 90.685 86.3107Z" fill="#333538"/>
<path d="M76.8952 88.4567C74.3863 82.249 71.7089 76.0787 69.1474 69.8921L67.1979 71.3532C68.6764 72.2857 70.155 73.2182 71.6805 74.0398C73.0005 75.0144 74.5316 75.6641 76.1497 75.9363C79.5954 75.9819 80.7726 72.2318 80.9525 69.4969C81.1048 67.9053 78.601 67.5401 78.4593 69.1581C78.3176 70.776 77.8243 74.2497 75.339 73.1733C73.0474 72.0679 70.843 70.7901 68.7449 69.3509C68.5223 69.1913 68.2543 69.1076 67.9804 69.112C67.7065 69.1164 67.4413 69.2088 67.224 69.3756C67.0067 69.5423 66.8487 69.7746 66.7735 70.0379C66.6983 70.3013 66.7098 70.582 66.8063 70.8383C69.3152 77.0461 71.9663 83.227 74.5541 89.4029C74.7095 89.6662 74.9543 89.8649 75.2439 89.963C75.5334 90.0611 75.8485 90.0521 76.132 89.9376C76.4154 89.823 76.6484 89.6105 76.7884 89.3388C76.9285 89.067 76.9664 88.7541 76.8952 88.4567Z" fill="#333538"/>
<path d="M86.5108 85.3664C84.6692 80.1538 83.0241 74.8719 81.5755 69.5208C81.4486 69.2069 81.2022 68.9562 80.8905 68.8239C80.5788 68.6917 80.2273 68.6887 79.9133 68.8155C79.6115 68.953 79.3734 69.2002 79.2473 69.5069C79.1211 69.8137 79.1166 70.1569 79.2344 70.467C80.7006 75.8109 82.3457 81.0928 84.1698 86.3126C84.7757 87.8119 87.0379 86.8977 86.5108 85.3664Z" fill="#333538"/>
<path d="M92.6956 100.064C92.0813 102.336 90.7463 104.346 88.8912 105.794C87.9056 106.539 86.7694 107.061 85.5618 107.323C85.0094 107.546 83.1295 107.817 82.9102 106.895C82.8634 106.566 82.6923 106.266 82.432 106.059C82.1718 105.851 81.8419 105.751 81.5101 105.778C81.1774 105.818 80.8737 105.988 80.6647 106.25C80.4557 106.512 80.3581 106.845 80.3929 107.178C81.3188 111.211 86.4832 110.133 89.1226 108.638C91.9539 106.964 94.0297 104.261 94.9173 101.094C95.0306 100.784 95.0249 100.443 94.9012 100.137C94.7774 99.8304 94.5445 99.5811 94.2475 99.4368C93.9386 99.3094 93.592 99.3081 93.2822 99.4334C92.9724 99.5586 92.724 99.8003 92.5903 100.107" fill="#333538"/>
<path d="M73.7286 102.956C73.7104 103.524 73.8051 104.089 74.0072 104.619C74.2094 105.15 74.5149 105.635 74.9061 106.046C75.2972 106.457 75.7663 106.787 76.2859 107.015C76.8055 107.244 77.3653 107.367 77.9329 107.377C80.6416 107.271 83.2915 106.555 85.6858 105.284C88.3214 104.13 90.8128 102.671 93.1093 100.937C94.2699 100.248 95.2849 99.3388 96.0975 98.2608C96.7149 97.0627 95.6667 95.6809 95.1519 94.6343C94.546 93.135 92.126 94.113 92.8109 95.5804C92.9916 96.0276 93.1617 96.4485 93.3425 96.8957L93.6082 97.5533C93.4807 97.2376 93.4594 97.185 93.2394 97.5493C92.7984 97.8341 92.3881 98.164 92.0154 98.5337L90.7701 99.4654C89.083 100.699 87.2801 101.766 85.3866 102.651C83.5641 103.546 81.6524 104.247 79.6832 104.742C78.5935 104.999 75.8389 105.225 76.064 103.359C76.2892 101.493 73.6594 101.271 73.5602 102.994" fill="#333538"/>
<path d="M70.2347 99.6868C70.399 100.325 70.703 100.92 71.1249 101.427C71.5467 101.933 72.0758 102.34 72.674 102.618C73.7927 102.926 74.9753 102.914 76.0878 102.585C79.0861 101.821 82.0321 100.866 84.9075 99.7238C87.7334 98.7216 90.4293 97.3854 92.9382 95.7437C93.837 95.1662 95.5619 94.2855 95.473 93.0055C95.3842 91.7256 93.848 90.8777 93.1183 90.1322C91.9604 89.0089 90.4134 91.0111 91.5713 92.1344C91.841 92.4232 92.1477 92.7277 92.4437 93.0058C92.7397 93.284 93.1163 93.9886 92.9663 93.3148L93.2317 92.3814C92.5373 93.0738 91.7396 93.6543 90.8671 94.1021C89.9861 94.6528 89.075 95.1538 88.1382 95.6028C86.376 96.4375 84.5667 97.1687 82.7195 97.7928C80.9045 98.5263 79.0044 99.0495 77.1519 99.6146C76.2464 99.944 75.3011 100.151 74.3408 100.231C73.2556 100.271 72.9267 99.6087 72.6072 98.6668C72.0012 97.1674 69.7127 98.0923 70.2661 99.6129" fill="#333538"/>
<path d="M69.0424 93.5587C68.4152 94.7651 68.1269 96.119 68.2082 97.4762C68.3512 98.0566 68.7096 98.5609 69.2107 98.8869C69.7118 99.2128 70.3181 99.336 70.9067 99.2314C72.4713 99.0267 73.9979 98.5954 75.4382 97.9508C77.1743 97.2491 78.9104 96.5475 80.699 95.8246C84.0134 94.485 87.2533 92.9614 90.4138 91.3168C91.4396 90.9022 93.3598 90.1262 93.7668 89.0131C94.1737 87.9 92.3354 86.5314 91.5419 85.6281C90.426 84.4572 88.4084 85.9766 89.5348 87.1737C89.9579 87.6148 90.3703 88.0295 90.7671 88.4811L91.4017 89.1427C91.7454 88.0246 91.6178 87.7089 91.0189 88.1957C90.4146 88.4278 89.8364 88.723 89.2941 89.0765L87.9525 89.6187C85.7122 90.7383 83.4243 91.816 81.1202 92.7779C78.816 93.7397 76.5958 94.6064 74.36 95.5101C73.2902 95.9026 72.2012 96.2405 71.0972 96.5228C70.5807 96.4561 70.4754 96.4987 70.8078 96.6397C70.7228 96.4293 70.8851 96.1495 70.9316 95.8859C71.0691 95.3739 71.2452 94.8731 71.4583 94.3878C72.0377 92.8684 69.7107 91.881 69.1314 93.4004" fill="#333538"/>
<path d="M89.4608 84.113C85.936 85.5376 82.4112 86.9622 78.8328 88.1025C76.9915 88.8466 74.9381 89.2175 73.0812 89.9986C71.4223 90.7369 69.9807 91.8885 68.8942 93.3433C68.7398 93.6109 68.6878 93.9254 68.7476 94.2284C68.8075 94.5315 68.9751 94.8026 69.2195 94.9914C69.464 95.1803 69.7687 95.2741 70.077 95.2555C70.3854 95.2369 70.6765 95.1072 70.8965 94.8903C71.9046 93.5552 73.2932 92.5565 74.8797 92.0258C76.6947 91.2922 78.6267 90.848 80.5105 90.2091C83.8623 89.038 87.1716 87.7617 90.4596 86.4328C90.7228 86.2774 90.9215 86.0327 91.0197 85.7432C91.1178 85.4536 91.1087 85.1385 90.9942 84.855C90.8796 84.5716 90.6671 84.3387 90.3954 84.1986C90.1237 84.0585 89.8107 84.0206 89.5134 84.0917" fill="#333538"/>
<path d="M59.2414 65.1438C59.1186 64.6385 59.0531 64.1209 59.0462 63.6009C59.0152 63.5528 58.9936 63.4992 58.9824 63.443C58.9293 63.3529 58.8898 63.2554 58.8655 63.1537C58.8564 62.9249 58.8661 62.6958 58.8946 62.4687C58.9018 62.0325 58.9408 61.5975 59.0112 61.167C59.0349 60.9422 59.0782 60.7199 59.1405 60.5027L59.2709 60.144L59.506 59.5899C59.4277 59.7746 59.506 59.5899 59.506 59.5899L59.7053 59.3258L59.942 59.2301L60.0998 59.1663L60.5778 58.759C60.9392 58.467 61.3262 58.2082 61.7341 57.9856C61.5763 58.0494 61.7341 57.9856 61.7341 57.9856L62.0234 57.8687L62.7337 57.5816C63.0385 57.451 63.2821 57.2092 63.4151 56.9053C63.5481 56.6015 63.5604 56.2584 63.4495 55.9458C63.3226 55.6319 63.0762 55.3812 62.7645 55.249C62.4528 55.1167 62.1014 55.1137 61.7875 55.2405C59.6915 56.0268 57.9572 57.5554 56.9138 59.536C56.54 60.5268 56.3319 61.5724 56.2978 62.6308C56.1595 63.7964 56.2029 64.9763 56.4263 66.1286C56.4458 66.2915 56.4973 66.449 56.5777 66.592C56.6581 66.735 56.7659 66.8607 56.895 66.962C57.024 67.0634 57.1717 67.1382 57.3297 67.1824C57.4878 67.2266 57.653 67.2391 57.8158 67.2194C58.1485 67.1794 58.4521 67.0101 58.6611 66.7482C58.8701 66.4862 58.9678 66.1526 58.933 65.8193" fill="#333538"/>
<path d="M35.0821 51.1007C30.163 49.6621 25.0923 48.805 19.9737 48.5469C19.6648 48.5438 19.3652 48.6528 19.1305 48.8536C18.8958 49.0545 18.7419 49.3336 18.6973 49.6393C18.6528 49.945 18.7205 50.2565 18.8881 50.516C19.0556 50.7756 19.3116 50.9655 19.6085 51.0507C24.5141 51.2688 29.3767 52.0667 34.0948 53.4276C34.3918 53.5064 34.7073 53.4754 34.9833 53.3404C35.2594 53.2053 35.4775 52.9752 35.5976 52.6923C35.7176 52.4094 35.7315 52.0927 35.6368 51.8003C35.5422 51.5079 35.3452 51.2595 35.0821 51.1007Z" fill="#333538"/>
<path d="M36.1589 73.6769C29.9258 76.3858 23.9837 79.7204 18.4241 83.6294C17.0892 84.5667 18.6192 86.6106 19.9434 85.647C25.32 81.8595 31.0706 78.633 37.1051 76.018C37.3684 75.8626 37.5671 75.6179 37.6652 75.3283C37.7633 75.0388 37.7543 74.7236 37.6397 74.4402C37.5251 74.1568 37.3127 73.9238 37.0409 73.7838C36.7692 73.6437 36.4562 73.6058 36.1589 73.6769Z" fill="#333538"/>
<path d="M50.4277 96.0328L46.6986 105.129C46.5784 105.433 46.5798 105.773 46.7025 106.076C46.8252 106.38 47.0597 106.624 47.3577 106.76C47.5102 106.827 47.6746 106.863 47.8411 106.865C48.0077 106.868 48.1731 106.837 48.3275 106.774C48.4819 106.712 48.6223 106.619 48.7404 106.502C48.8584 106.384 48.9518 106.244 49.0149 106.09L52.7547 97.0202C52.8821 96.7112 52.8834 96.3647 52.7581 96.0548C52.6329 95.745 52.3912 95.4966 52.0849 95.363C51.7753 95.2428 51.4316 95.2452 51.1237 95.3697C50.8158 95.4941 50.5669 95.7312 50.4277 96.0328Z" fill="#333538"/>
<path d="M105.676 75.0187C109.161 76.3172 112.872 76.8989 116.588 76.7288C116.917 76.682 117.217 76.5109 117.424 76.2506C117.632 75.9903 117.732 75.6604 117.705 75.3286C117.665 74.9959 117.495 74.6923 117.234 74.4833C116.972 74.2742 116.638 74.1766 116.305 74.2114C113.037 74.3835 109.768 73.8934 106.695 72.7707C106.385 72.6506 106.042 72.653 105.734 72.7774C105.426 72.9018 105.177 73.1389 105.038 73.4405C104.91 73.7494 104.909 74.096 105.034 74.4058C105.16 74.7156 105.401 74.964 105.708 75.0976" fill="#333538"/>
<path d="M105.068 49.2849L117.043 44.9957C118.543 44.3897 117.618 42.1012 116.097 42.6546L104.122 46.9439C102.596 47.5605 103.537 49.812 105.068 49.2849Z" fill="#333538"/>
<path d="M83.492 32.8514C83.5557 31.7952 83.967 30.7898 84.6619 29.9917C85.4376 28.8826 86.3611 27.8361 87.2001 26.732C89.0723 24.3229 90.8281 21.7772 92.4731 19.1845C92.6755 18.9236 92.7663 18.5932 92.7257 18.2655C92.685 17.9378 92.5161 17.6396 92.2561 17.4361C92.1271 17.3285 91.9774 17.2487 91.8161 17.2016C91.6549 17.1545 91.4857 17.1413 91.3191 17.1626C91.1525 17.184 90.9921 17.2396 90.8479 17.3258C90.7038 17.412 90.5791 17.5271 90.4815 17.6638C88.574 20.5156 86.7818 23.1984 84.6208 25.8772C82.8689 28.0541 80.8008 30.2057 80.8694 33.1769C80.8669 33.3581 80.9029 33.5378 80.9752 33.704C81.0474 33.8702 81.1542 34.019 81.2885 34.1407C81.4227 34.2625 81.5814 34.3542 81.7538 34.4099C81.9263 34.4656 82.1085 34.4839 82.2886 34.4636C82.4687 34.4434 82.6424 34.3851 82.7982 34.2925C82.9539 34.1999 83.0883 34.0752 83.1922 33.9268C83.296 33.7783 83.3671 33.6094 83.4007 33.4313C83.4342 33.2532 83.4294 33.0701 83.3867 32.894" fill="#333538"/>
<path d="M61.2443 34.5904C59.1925 29.5137 56.9672 24.5377 54.8365 19.4929C54.681 19.2296 54.4363 19.0308 54.1468 18.9327C53.8572 18.8346 53.5421 18.8437 53.2586 18.9582C52.9752 19.0728 52.7423 19.2852 52.6022 19.557C52.4622 19.8287 52.4243 20.1417 52.4954 20.439C54.5472 25.5157 56.7725 30.4917 58.9032 35.5365C59.0586 35.7998 59.3034 35.9985 59.593 36.0966C59.8825 36.1947 60.1976 36.1857 60.481 36.0712C60.7645 35.9566 60.9974 35.7441 61.1375 35.4724C61.2776 35.2006 61.3155 34.8877 61.2443 34.5904Z" fill="#333538"/>
</svg>
