<svg width="1440" height="580" viewBox="0 0 1440 580" fill="none" xmlns="http://www.w3.org/2000/svg">
<g style="mix-blend-mode:overlay">
<path d="M-72 373C-46.6667 405.667 66 451.644 112 461C188 476.458 362 411 382 321C394.76 263.579 480 101 590 131C700 161 720.843 157.159 777 137C855 109 906 94 962 196C1018 298 1143 253.293 1192 249M1192 249C1241 244.707 1242 148 1170 169C1098 190 1144 261 1192 249ZM1192 249C1225 246.109 1345.33 270 1438 196" stroke="black" stroke-width="3" stroke-dasharray="20 20"/>
</g>
<g style="mix-blend-mode:overlay">
<path d="M-72 373C-46.6667 405.667 66 451.644 112 461C188 476.458 362 411 382 321C394.76 263.579 480 101 590 131C700 161 720.843 157.159 777 137C855 109 906 94 962 196C1018 298 1143 253.293 1192 249M1192 249C1241 244.707 1242 148 1170 169C1098 190 1144 261 1192 249ZM1192 249C1225 246.109 1345.33 270 1438 196" stroke="black" stroke-width="3" stroke-dasharray="20 20"/>
</g>
<g style="mix-blend-mode:lighten" opacity="0.5" filter="url(#filter0_f)">
<path d="M-33 131L738 75L1506 112V383L791.14 288.988C756.127 284.384 720.533 287.403 686.796 297.839L30 501L-33 131Z" fill="url(#paint0_radial)"/>
</g>
<g style="mix-blend-mode:lighten" opacity="0.5" filter="url(#filter1_f)">
<path d="M1511 135L740 79L-28 116V387L686.86 292.988C721.873 288.384 757.467 291.403 791.204 301.839L1448 505L1511 135Z" fill="url(#paint1_radial)"/>
</g>
<defs>
<filter id="filter0_f" x="-108" y="0" width="1689" height="576" filterUnits="userSpaceOnUse" color-interpolation-filters="sRGB">
<feFlood flood-opacity="0" result="BackgroundImageFix"/>
<feBlend mode="normal" in="SourceGraphic" in2="BackgroundImageFix" result="shape"/>
<feGaussianBlur stdDeviation="37.5" result="effect1_foregroundBlur"/>
</filter>
<filter id="filter1_f" x="-103" y="4" width="1689" height="576" filterUnits="userSpaceOnUse" color-interpolation-filters="sRGB">
<feFlood flood-opacity="0" result="BackgroundImageFix"/>
<feBlend mode="normal" in="SourceGraphic" in2="BackgroundImageFix" result="shape"/>
<feGaussianBlur stdDeviation="37.5" result="effect1_foregroundBlur"/>
</filter>
<radialGradient id="paint0_radial" cx="0" cy="0" r="1" gradientUnits="userSpaceOnUse" gradientTransform="translate(269 251) rotate(9.22635) scale(997.91 9124.81)">
<stop stop-color="white"/>
<stop offset="1" stop-color="white" stop-opacity="0"/>
</radialGradient>
<radialGradient id="paint1_radial" cx="0" cy="0" r="1" gradientUnits="userSpaceOnUse" gradientTransform="translate(1209 255) rotate(170.774) scale(997.91 9124.81)">
<stop stop-color="white"/>
<stop offset="1" stop-color="white" stop-opacity="0"/>
</radialGradient>
</defs>
</svg>
